<svg xmlns="http://www.w3.org/2000/svg" xmlns:xlink="http://www.w3.org/1999/xlink" viewBox="0 0 600 575"><path  d="M 0 0
L 600 0
L 600 575
L 0 575
L 0 0" style="stroke-width:0;stroke:rgba(255,255,255,1.0);fill:rgba(255,255,255,1.0)"/><path  d="M 25 50
L 575 50
L 575 450
L 25 450
L 25 50" style="stroke-width:0;stroke:rgba(255,255,255,1.0);fill:rgba(255,255,255,1.0)"/><path  d="M 300 250
L 500 250
A 200 200 164.70 0 1 108 302
L 300 250
Z" style="stroke-width:3;stroke:rgba(255,255,255,1.0);fill:rgba(222,165,132,1.0)"/><path  d="M 300 250
L 108 302
A 200 200 109.58 0 1 314 51
L 300 250
Z" style="stroke-width:3;stroke:rgba(255,255,255,1.0);fill:rgba(110,76,19,1.0)"/><path  d="M 300 250
L 314 51
A 200 200 85.64 0 1 499 250
L 300 250
Z" style="stroke-width:3;stroke:rgba(255,255,255,1.0);fill:rgba(85,85,85,1.0)"/><text x="199" y="30" style="stroke-width:0;stroke:none;fill:rgba(0,0,0,1.0);font-size:20.4px;font-family:'Roboto Medium',sans-serif">Language Distribution</text><path  d="M 50 500
L 70 500
L 70 520
L 50 520
L 50 500" style="stroke-width:1;stroke:rgba(255,255,255,1.0);fill:rgba(222,165,132,1.0)"/><text x="80" y="514" style="stroke-width:0;stroke:none;fill:rgba(0,0,0,1.0);font-size:15.3px;font-family:'Roboto Medium',sans-serif">Rust 45.8%</text><path  d="M 230 500
L 250 500
L 250 520
L 230 520
L 230 500" style="stroke-width:1;stroke:rgba(255,255,255,1.0);fill:rgba(110,76,19,1.0)"/><text x="260" y="514" style="stroke-width:0;stroke:none;fill:rgba(0,0,0,1.0);font-size:15.3px;font-family:'Roboto Medium',sans-serif">Assembly 30.4%</text><path  d="M 410 500
L 430 500
L 430 520
L 410 520
L 410 500" style="stroke-width:1;stroke:rgba(255,255,255,1.0);fill:rgba(85,85,85,1.0)"/><text x="440" y="514" style="stroke-width:0;stroke:none;fill:rgba(0,0,0,1.0);font-size:15.3px;font-family:'Roboto Medium',sans-serif">C 23.8%</text></svg>