<svg xmlns="http://www.w3.org/2000/svg" xmlns:xlink="http://www.w3.org/1999/xlink" viewBox="0 0 680 500"><path  d="M 0 0
L 680 0
L 680 500
L 0 500
L 0 0" style="stroke-width:0;stroke:rgba(255,255,255,1.0);fill:rgba(255,255,255,1.0)"/><path  d="M 280 50
L 655 50
L 655 474
L 280 474
L 280 50" style="stroke-width:0;stroke:rgba(255,255,255,1.0);fill:rgba(255,255,255,1.0)"/><path  d="M 467 262
L 654 262
A 187 187 164.70 0 1 287 311
L 467 262
Z" style="stroke-width:3;stroke:rgba(255,255,255,1.0);fill:rgba(222,165,132,1.0)"/><path  d="M 467 262
L 287 311
A 187 187 109.58 0 1 480 76
L 467 262
Z" style="stroke-width:3;stroke:rgba(255,255,255,1.0);fill:rgba(110,76,19,1.0)"/><path  d="M 467 262
L 480 76
A 187 187 85.64 0 1 653 262
L 467 262
Z" style="stroke-width:3;stroke:rgba(255,255,255,1.0);fill:rgba(85,85,85,1.0)"/><text x="239" y="30" style="stroke-width:0;stroke:none;fill:rgba(0,0,0,1.0);font-size:20.4px;font-family:'Roboto Medium',sans-serif">Language Distribution</text><path  d="M 50 212
L 70 212
L 70 232
L 50 232
L 50 212" style="stroke-width:1;stroke:rgba(255,255,255,1.0);fill:rgba(222,165,132,1.0)"/><text x="80" y="226" style="stroke-width:0;stroke:none;fill:rgba(0,0,0,1.0);font-size:15.3px;font-family:'Roboto Medium',sans-serif">Rust 45.8%</text><path  d="M 50 237
L 70 237
L 70 257
L 50 257
L 50 237" style="stroke-width:1;stroke:rgba(255,255,255,1.0);fill:rgba(110,76,19,1.0)"/><text x="80" y="251" style="stroke-width:0;stroke:none;fill:rgba(0,0,0,1.0);font-size:15.3px;font-family:'Roboto Medium',sans-serif">Assembly 30.4%</text><path  d="M 50 262
L 70 262
L 70 282
L 50 282
L 50 262" style="stroke-width:1;stroke:rgba(255,255,255,1.0);fill:rgba(85,85,85,1.0)"/><text x="80" y="276" style="stroke-width:0;stroke:none;fill:rgba(0,0,0,1.0);font-size:15.3px;font-family:'Roboto Medium',sans-serif">C 23.8%</text></svg>