<svg width="449" height="312" viewBox="0 0 449 312" xmlns="http://www.w3.org/2000/svg" lang="en" xml:lang="en"><rect x="2" y="2" stroke-width="4" rx="6" width="445" height="308" stroke="rgba(84,174,255,0.4)" fill="#ffffff"/><g font-weight="600" font-size="110pt" font-family="Verdana,Geneva,DejaVu Sans,sans-serif" text-rendering="geometricPrecision"><text x="441" y="301" lengthAdjust="spacingAndGlyphs" textLength="2760" transform="scale(0.123)" fill="#0969da">Mohsen Bagheri's GitHub Activity</text><svg x="15" y="15" width="25" height="25" viewBox="0 0 16 16"><path fill="#000000" fill-rule="evenodd" d="M8 0C3.58 0 0 3.58 0 8c0 3.54 2.29 6.53 5.47 7.59.4.07.55-.17.55-.38 0-.19-.01-.82-.01-1.49-2.01.37-2.53-.49-2.69-.94-.09-.23-.48-.94-.82-1.13-.28-.15-.68-.52-.01-.53.63-.01 1.08.58 1.23.82.72 1.21 1.87.87 2.33.66.07-.52.28-.87.51-1.07-1.78-.2-3.64-.89-3.64-3.95 0-.87.31-1.59.82-2.15-.08-.2-.36-1.02.08-2.12 0 0 .67-.21 2.2.82.64-.18 1.32-.27 2-.27.68 0 1.36.09 2 .27 1.53-1.04 2.2-.82 2.2-.82.44 1.1.16 1.92.08 2.12.51.56.82 1.27.82 2.15 0 3.07-1.87 3.75-3.65 3.95.29.25.54.73.54 1.48 0 1.07-.01 1.93-.01 2.2 0 .21.15.46.55.38A8.013 8.013 0 0016 8c0-4.42-3.58-8-8-8z"/></svg><svg x="409" y="15" width="25" height="25" viewBox="0 0 16 16"><path fill="#000000" fill-rule="evenodd" d="M8 0C3.58 0 0 3.58 0 8c0 3.54 2.29 6.53 5.47 7.59.4.07.55-.17.55-.38 0-.19-.01-.82-.01-1.49-2.01.37-2.53-.49-2.69-.94-.09-.23-.48-.94-.82-1.13-.28-.15-.68-.52-.01-.53.63-.01 1.08.58 1.23.82.72 1.21 1.87.87 2.33.66.07-.52.28-.87.51-1.07-1.78-.2-3.64-.89-3.64-3.95 0-.87.31-1.59.82-2.15-.08-.2-.36-1.02.08-2.12 0 0 .67-.21 2.2.82.64-.18 1.32-.27 2-.27.68 0 1.36.09 2 .27 1.53-1.04 2.2-.82 2.2-.82.44 1.1.16 1.92.08 2.12.51.56.82 1.27.82 2.15 0 3.07-1.87 3.75-3.65 3.95.29.25.54.73.54 1.48 0 1.07-.01 1.93-.01 2.2 0 .21.15.46.55.38A8.013 8.013 0 0016 8c0-4.42-3.58-8-8-8z"/></svg><g transform="translate(0, 60)" fill="#24292f"><g transform="translate(15, 0)"><g transform="scale(0.095)"><text x="0" y="132" textLength="3652" lengthAdjust="spacingAndGlyphs">Language Distribution in Public Repositories</text></g></g><g transform="translate(239, 21)"><circle cx="92" cy="92" r="92" fill="#000000"/></g><g transform="translate(240, 22)"><path fill-rule="evenodd" fill="#3178c6" d="M 0.0,91.00000000000001 A 91 91 0 0 1 128.07073440894249 7.893077000880098 L 91,91 Z"/><path fill-rule="evenodd" fill="#178600" d="M 128.07073440894249,7.893077000880098 A 91 91 0 0 1 175.73614595696625 124.17808867851957 L 91,91 Z"/><path fill-rule="evenodd" fill="#f34b7d" d="M 175.73614595696625,124.17808867851957 A 91 91 0 0 1 126.01090122144372 174.99545699418695 L 91,91 Z"/><path fill-rule="evenodd" fill="#c6538c" d="M 126.01090122144372,174.99545699418695 A 91 91 0 0 1 86.8772476906419 181.90656144303162 L 91,91 Z"/><path fill-rule="evenodd" fill="#f1e05a" d="M 86.8772476906419,181.90656144303162 A 91 91 0 0 1 49.49193861927846 171.98197849160178 L 91,91 Z"/><path fill-rule="evenodd" fill="#555555" d="M 49.49193861927846,171.98197849160178 A 91 91 0 0 1 20.846093820194028 148.96058529479305 L 91,91 Z"/><path fill-rule="evenodd" fill="#dea584" d="M 20.846093820194028,148.96058529479305 A 91 91 0 0 1 10.229899149479479 132.91885981985607 L 91,91 Z"/><path fill-rule="evenodd" fill="#663399" d="M 10.229899149479479,132.91885981985607 A 91 91 0 0 1 4.089660944211829 117.9739312153038 L 91,91 Z"/><path fill-rule="evenodd" fill="#000080" d="M 4.089660944211829,117.9739312153038 A 91 91 0 0 1 1.8377670216177933 109.19604930496429 L 91,91 Z"/><path fill-rule="evenodd" fill="#959da5" d="M 1.8377670216177933,109.19604930496429 A 91 91 0 0 1 0.0 91.00000000000003 L 91,91 Z"/></g><g transform="translate(15, 21)"><rect x="0.5" y="0.5" rx="2" width="15" height="15" fill="#3178c6" stroke-width="1" stroke="#000000"/><text transform="scale(0.095)" x="263" y="132" textLength="1568" lengthAdjust="spacingAndGlyphs">TypeScript 31.68%</text></g><g transform="translate(15, 42)"><rect x="0.5" y="0.5" rx="2" width="15" height="15" fill="#178600" stroke-width="1" stroke="#000000"/><text transform="scale(0.095)" x="263" y="132" textLength="936" lengthAdjust="spacingAndGlyphs">C# 24.26%</text></g><g transform="translate(15, 63)"><rect x="0.5" y="0.5" rx="2" width="15" height="15" fill="#f34b7d" stroke-width="1" stroke="#000000"/><text transform="scale(0.095)" x="263" y="132" textLength="1074" lengthAdjust="spacingAndGlyphs">C++ 12.78%</text></g><g transform="translate(15, 84)"><rect x="0.5" y="0.5" rx="2" width="15" height="15" fill="#c6538c" stroke-width="1" stroke="#000000"/><text transform="scale(0.095)" x="263" y="132" textLength="1008" lengthAdjust="spacingAndGlyphs">SCSS 7.01%</text></g><g transform="translate(15, 105)"><rect x="0.5" y="0.5" rx="2" width="15" height="15" fill="#f1e05a" stroke-width="1" stroke="#000000"/><text transform="scale(0.095)" x="263" y="132" textLength="1412" lengthAdjust="spacingAndGlyphs">JavaScript 6.82%</text></g><g transform="translate(15, 126)"><rect x="0.5" y="0.5" rx="2" width="15" height="15" fill="#555555" stroke-width="1" stroke="#000000"/><text transform="scale(0.095)" x="263" y="132" textLength="693" lengthAdjust="spacingAndGlyphs">C 6.47%</text></g><g transform="translate(15, 147)"><rect x="0.5" y="0.5" rx="2" width="15" height="15" fill="#dea584" stroke-width="1" stroke="#000000"/><text transform="scale(0.095)" x="263" y="132" textLength="946" lengthAdjust="spacingAndGlyphs">Rust 3.37%</text></g><g transform="translate(15, 168)"><rect x="0.5" y="0.5" rx="2" width="15" height="15" fill="#663399" stroke-width="1" stroke="#000000"/><text transform="scale(0.095)" x="263" y="132" textLength="903" lengthAdjust="spacingAndGlyphs">CSS 2.83%</text></g><g transform="translate(15, 189)"><rect x="0.5" y="0.5" rx="2" width="15" height="15" fill="#000080" stroke-width="1" stroke="#000000"/><text transform="scale(0.095)" x="263" y="132" textLength="874" lengthAdjust="spacingAndGlyphs">Lua 1.59%</text></g><g transform="translate(15, 210)"><rect x="0.5" y="0.5" rx="2" width="15" height="15" fill="#959da5" stroke-width="1" stroke="#000000"/><text transform="scale(0.095)" x="263" y="132" textLength="1047" lengthAdjust="spacingAndGlyphs">Other 3.20%</text></g></g></g></svg>